HIERARCHY
ROOT hip
{
  OFFSET 0 0 0
  CHANNELS 6 Xposition Yposition Zposition Zrotation Yrotation Xrotation
  JOINT abdomen
  {
    OFFSET 0 20.6881 -0.73152
    CHANNELS 3 Zrotation Xrotation Yrotation
    JOINT chest
    {
      OFFSET 0 11.7043 -0.48768
      CHANNELS 3 Zrotation Xrotation Yrotation
      JOINT neck
      {
        OFFSET 0 22.1894 -2.19456
        CHANNELS 3 Zrotation Xrotation Yrotation
        JOINT head
        {
          OFFSET -0.24384 7.07133 1.2192
          CHANNELS 3 Zrotation Xrotation Yrotation
          JOINT leftEye
          {
            OFFSET 4.14528 8.04674 8.04672
            CHANNELS 3 Zrotation Xrotation Yrotation
            End Site
            {
              OFFSET 1 0 0
            }
          }
          JOINT rightEye
          {
            OFFSET -3.6576 8.04674 8.04672
            CHANNELS 3 Zrotation Xrotation Yrotation
            End Site
            {
              OFFSET 1 0 0
            }
          }
        }
      }
      JOINT rCollar
      {
        OFFSET -2.68224 19.2634 -4.8768
        CHANNELS 3 Zrotation Xrotation Yrotation
        JOINT rShldr
        {
          OFFSET -8.77824 -1.95073 1.46304
          CHANNELS 3 Zrotation Xrotation Yrotation
          JOINT rForeArm
          {
            OFFSET -28.1742 -1.7115 0.48768
            CHANNELS 3 Zrotation Xrotation Yrotation
            JOINT rHand
            {
              OFFSET -22.5879 0.773209 7.07136
              CHANNELS 3 Zrotation Xrotation Yrotation
              JOINT rThumb1
              {
                OFFSET -1.2192 -0.487915 3.41376
                CHANNELS 3 Zrotation Xrotation Yrotation
                JOINT rThumb2
                {
                  OFFSET -3.37035 -0.52449 3.41376
                  CHANNELS 3 Zrotation Xrotation Yrotation
                  End Site
                  {
                    OFFSET -1.78271 -1.18214 1.43049
                  }
                }
              }
              JOINT rIndex1
              {
                OFFSET -7.75947 0.938293 5.60832
                CHANNELS 3 Zrotation Xrotation Yrotation
                JOINT rIndex2
                {
                  OFFSET -2.54057 -0.884171 1.56538
                  CHANNELS 3 Zrotation Xrotation Yrotation
                  End Site
                  {
                    OFFSET -1.62519 -0.234802 1.16502
                  }
                }
              }
              JOINT rMid1
              {
                OFFSET -8.24714 1.18213 3.41376
                CHANNELS 3 Zrotation Xrotation Yrotation
                JOINT rMid2
                {
                  OFFSET -3.10165 -0.590103 1.0647
                  CHANNELS 3 Zrotation Xrotation Yrotation
                  End Site
                  {
                    OFFSET -2.48547 -0.328903 0.83742
                  }
                }
              }
              JOINT rRing1
              {
                OFFSET -8.82822 0.546677 1.51678
                CHANNELS 3 Zrotation Xrotation Yrotation
                JOINT rRing2
                {
                  OFFSET -2.60934 -0.819778 -0.0198488
                  CHANNELS 3 Zrotation Xrotation Yrotation
                  End Site
                  {
                    OFFSET -2.33842 -0.294052 0.168128
                  }
                }
              }
              JOINT rPinky1
              {
                OFFSET -8.27202 -0.0477905 -0.4584
                CHANNELS 3 Zrotation Xrotation Yrotation
                JOINT rPinky2
                {
                  OFFSET -1.82734 -0.647385 -0.700984
                  CHANNELS 3 Zrotation Xrotation Yrotation
                  End Site
                  {
                    OFFSET -1.69225 -0.51767 -0.607171
                  }
                }
              }
            }
          }
        }
      }
      JOINT lCollar
      {
        OFFSET 2.68224 19.2634 -4.8768
        CHANNELS 3 Zrotation Xrotation Yrotation
        JOINT lShldr
        {
          OFFSET 8.77824 -1.95073 1.46304
          CHANNELS 3 Zrotation Xrotation Yrotation
          JOINT lForeArm
          {
            OFFSET 28.1742 -1.7115 0.48768
            CHANNELS 3 Zrotation Xrotation Yrotation
            JOINT lHand
            {
              OFFSET 22.5879 0.773209 7.07136
              CHANNELS 3 Zrotation Xrotation Yrotation
              JOINT lThumb1
              {
                OFFSET 1.2192 -0.487915 3.41376
                CHANNELS 3 Zrotation Xrotation Yrotation
                JOINT lThumb2
                {
                  OFFSET 3.37035 -0.52449 3.41376
                  CHANNELS 3 Zrotation Xrotation Yrotation
                  End Site
                  {
                    OFFSET 1.78271 -1.18214 1.43049
                  }
                }
              }
              JOINT lIndex1
              {
                OFFSET 7.75947 0.938293 5.60832
                CHANNELS 3 Zrotation Xrotation Yrotation
                JOINT lIndex2
                {
                  OFFSET 2.54057 -0.884171 1.56538
                  CHANNELS 3 Zrotation Xrotation Yrotation
                  End Site
                  {
                    OFFSET 1.62519 -0.234802 1.16502
                  }
                }
              }
              JOINT lMid1
              {
                OFFSET 8.24714 1.18213 3.41376
                CHANNELS 3 Zrotation Xrotation Yrotation
                JOINT lMid2
                {
                  OFFSET 3.10165 -0.590103 1.0647
                  CHANNELS 3 Zrotation Xrotation Yrotation
                  End Site
                  {
                    OFFSET 2.48547 -0.328903 0.83742
                  }
                }
              }
              JOINT lRing1
              {
                OFFSET 8.82822 0.546677 1.51678
                CHANNELS 3 Zrotation Xrotation Yrotation
                JOINT lRing2
                {
                  OFFSET 2.60934 -0.819778 -0.0198488
                  CHANNELS 3 Zrotation Xrotation Yrotation
                  End Site
                  {
                    OFFSET 2.33842 -0.294052 0.168128
                  }
                }
              }
              JOINT lPinky1
              {
                OFFSET 8.27202 -0.0477905 -0.4584
                CHANNELS 3 Zrotation Xrotation Yrotation
                JOINT lPinky2
                {
                  OFFSET 1.82734 -0.647385 -0.700984
                  CHANNELS 3 Zrotation Xrotation Yrotation
                  End Site
                  {
                    OFFSET 1.69225 -0.51767 -0.607171
                  }
                }
              }
            }
          }
        }
      }
    }
  }
  JOINT rButtock
  {
    OFFSET -8.77824 4.35084 1.2192
    CHANNELS 3 Zrotation Xrotation Yrotation
    JOINT rThigh
    {
      OFFSET 0 -1.70687 -2.19456
      CHANNELS 3 Zrotation Xrotation Yrotation
      JOINT rShin
      {
        OFFSET 0 -36.8199 0.73152
        CHANNELS 3 Zrotation Xrotation Yrotation
        JOINT rFoot
        {
          OFFSET 0.73152 -45.1104 -5.12064
          CHANNELS 3 Zrotation Xrotation Yrotation
          End Site
          {
            OFFSET -1.1221 -3.69964 12.103
          }
        }
      }
    }
  }
  JOINT lButtock
  {
    OFFSET 8.77824 4.35084 1.2192
    CHANNELS 3 Zrotation Xrotation Yrotation
    JOINT lThigh
    {
      OFFSET 0 -1.70687 -2.19456
      CHANNELS 3 Zrotation Xrotation Yrotation
      JOINT lShin
      {
        OFFSET 0 -36.8199 0.73152
        CHANNELS 3 Zrotation Xrotation Yrotation
        JOINT lFoot
        {
          OFFSET -0.73152 -45.1104 -5.12064
          CHANNELS 3 Zrotation Xrotation Yrotation
          End Site
          {
            OFFSET 1.1221 -3.69964 12.103
          }
        }
      }
    }
  }
}
MOTION
Frames:	4
Frame Time:	0.03333
0.5740497261285782 -10.465916246175766 -3.419631067663431 -169.43434143066406 76.94427490234375 -158.97572326660156 2.4445462226867676 13.001739501953125 17.15883445739746 -3.822977066040039 -11.774625778198242 4.218302249908447 1.0874427556991577 14.1948881149292 13.459355354309082 -0.5132399797439575 -19.857952117919922 26.80270004272461 -0.08380899578332901 0.07273315638303757 0.12463776767253876 -0.060426853597164154 -0.2586439251899719 0.09087226539850235 0.19323426485061646 -0.1095227599143982 0.18912452459335327 81.19869995117188 59.24884033203125 -34.84647750854492 -25.086214065551758 -47.79306411743164 99.55567932128906 -11.641960144042969 -64.83749389648438 -17.86222267150879 0.07935989648103714 0.12306828796863556 0.10736255347728729 0.2648125886917114 0.2853288948535919 -0.11551502346992493 -0.20396260917186737 0.011418157257139683 -0.10291284322738647 7.545750141143799 5.267634391784668 0.5737931132316589 -0.3589401841163635 -0.08758363872766495 0.12518317997455597 3.0159966945648193 0.8036571741104126 0.09925280511379242 0.06739462912082672 0.3625911772251129 0.06571932882070541 10.50859260559082 0.911145031452179 0.27503734827041626 0.2107321172952652 -0.0071564638055861 -0.16746704280376434 1.9701457023620605 -0.8982422947883606 0.005809152498841286 0.14827291667461395 -0.20199520885944366 -0.21606536209583282 -42.689788818359375 14.876384735107422 -31.32030487060547 28.766386032104492 -36.486270904541016 -77.951904296875 3.7890737056732178 -44.96943664550781 8.497479438781738 -0.1714191883802414 0.21076272428035736 0.33272042870521545 -0.09979092329740524 -0.14266280829906464 -0.21047905087471008 0.3153396248817444 0.2164900004863739 -0.016060100868344307 -7.730683326721191 5.232883453369141 -0.4389413297176361 0.0903608500957489 -0.051907122135162354 0.07738079875707626 -3.195913314819336 1.0389567613601685 -0.28148895502090454 0.07534462958574295 0.1170969009399414 -0.018847716972231865 -10.40501594543457 0.6095559597015381 0.04759000614285469 -0.13718946278095245 0.18496261537075043 0.1438797116279602 -2.0089499950408936 -0.7621399164199829 0.32176050543785095 -0.01100165769457817 -0.10017652809619904 -0.10542628169059753 -50.037654876708984 -39.694671630859375 -40.8101692199707 -117.84921264648438 88.42144775390625 118.13275909423828 -7.920445919036865 -27.732147216796875 -9.490065574645996 0.01819003000855446 -0.09205245226621628 0.056129585951566696 62.58308029174805 -50.249202728271484 48.23163604736328 163.51934814453125 85.4100341796875 -164.0740509033203 2.802802562713623 -26.22586441040039 4.248225688934326
0.6228305399417877 -10.467831045389175 -3.4701015800237656 -170.591796875 77.41604614257812 -158.84518432617188 2.3606066703796387 13.154518127441406 16.72046661376953 -3.7156546115875244 -11.84234619140625 4.085317611694336 0.8046034574508667 14.243349075317383 13.147212028503418 -0.35551729798316956 -19.591407775878906 26.3405704498291 -0.004852112382650375 0.16984115540981293 0.11109091341495514 -0.1059674471616745 -0.20511317253112793 0.1118583008646965 0.2370801419019699 -0.08809218555688858 0.18979382514953613 83.65543365478516 57.22406005859375 -37.242637634277344 -25.5129337310791 -47.272708892822266 98.340087890625 -12.10399055480957 -65.39911651611328 -18.2506046295166 0.025714345276355743 0.1970665156841278 0.2108508199453354 0.2151029407978058 0.33476096391677856 -0.1637963056564331 -0.14706268906593323 0.025093043223023415 -0.046235036104917526 7.617227077484131 5.248823165893555 0.6458913087844849 -0.38558143377304077 -0.04220757260918617 0.16277390718460083 3.0636067390441895 0.877086341381073 0.10583952814340591 -0.03371091187000275 0.36432313919067383 0.10150596499443054 10.566889762878418 0.9917731881141663 0.34595435857772827 0.14669844508171082 0.08920682966709137 -0.09418768435716629 1.986609935760498 -0.8464162349700928 -0.05941692739725113 0.023952560499310493 -0.11990848928689957 -0.1362035870552063 -43.1120491027832 12.625395774841309 -30.309280395507812 28.843549728393555 -36.0817756652832 -77.15662384033203 4.24973201751709 -45.8756217956543 8.872092247009277 -0.15779586136341095 0.3074975311756134 0.30275973677635193 -0.06813012063503265 -0.12045931816101074 -0.2011699080467224 0.3247692286968231 0.18714746832847595 -0.014750076457858086 -7.6063995361328125 5.267374038696289 -0.5035830736160278 0.014222840778529644 -0.10132531821727753 0.051698554307222366 -3.233111619949341 1.0651953220367432 -0.30632448196411133 0.1905582696199417 0.17371954023838043 -0.14410685002803802 -10.458569526672363 0.6700692176818848 0.034955333918333054 -0.14266718924045563 0.15682320296764374 0.15556228160858154 -1.9952714443206787 -0.7647359371185303 0.22617390751838684 -0.013484573923051357 -0.06575445830821991 -0.0347631499171257 -50.13894271850586 -39.970088958740234 -40.73545455932617 -136.35470581054688 88.14649200439453 136.5679473876953 -7.852837085723877 -27.97171974182129 -9.264837265014648 -0.005821763537824154 -0.1342710554599762 0.13750799000263214 62.89423751831055 -49.97733688354492 48.4736213684082 163.30841064453125 85.43531799316406 -163.74481201171875 2.330120086669922 -25.507131576538086 3.1845977306365967
0.6670532748103142 -10.392304509878159 -3.4916398115456104 -168.68869018554688 77.8221435546875 -162.08819580078125 2.058424711227417 12.929015159606934 16.513498306274414 -3.838399648666382 -11.805540084838867 4.080097198486328 1.1153382062911987 14.225296974182129 13.737334251403809 -1.0163911581039429 -19.20280647277832 27.10645866394043 0.009904900565743446 0.2348136454820633 0.046977635473012924 -0.15355829894542694 -0.05903325602412224 0.20866648852825165 0.1614755094051361 -0.1436000019311905 0.1063174307346344 88.34201049804688 55.519493103027344 -42.65326690673828 -26.18712615966797 -46.305667877197266 95.91801452636719 -12.250298500061035 -65.59380340576172 -18.504812240600586 0.01163530070334673 0.014325945638120174 0.12886735796928406 0.27450206875801086 0.22243493795394897 -0.09557198733091354 -0.13478393852710724 0.013704454526305199 -0.014431336894631386 7.656464099884033 5.363824844360352 0.4926901161670685 -0.44668442010879517 0.09234408289194107 0.08367577940225601 3.189352035522461 0.9821387529373169 0.20675387978553772 -0.06856429576873779 0.2192377895116806 0.18259263038635254 10.442816734313965 0.939357340335846 0.46911197900772095 0.053491462022066116 0.09733854979276657 -0.030408093705773354 2.0428147315979004 -0.899469792842865 -0.08345546573400497 0.0468771755695343 -0.05266052484512329 -0.07917725294828415 -42.259124755859375 9.213027000427246 -28.144906997680664 28.566272735595703 -33.93730163574219 -73.8104476928711 4.352222442626953 -46.45254135131836 9.13932991027832 -0.2064925730228424 0.15541240572929382 0.310270756483078 -0.037357036024332047 -0.08037207275629044 -0.0899198055267334 0.27749574184417725 0.08236407488584518 -0.04163522273302078 -7.667473316192627 5.2002177238464355 -0.48464053869247437 0.0018035850953310728 -0.1802571713924408 0.0008273223647847772 -3.049238681793213 0.9543452262878418 -0.2094830721616745 0.20133626461029053 0.2617892324924469 -0.07413212209939957 -10.482512474060059 0.565820038318634 0.08900204300880432 -0.11137327551841736 0.12477487325668335 0.2798748314380646 -2.1131365299224854 -0.8132451176643372 0.19601844251155853 0.032556191086769104 0.013971133157610893 -0.07477468252182007 -50.23951721191406 -39.65016174316406 -40.51601791381836 -155.78001403808594 87.06541442871094 156.09326171875 -8.052038192749023 -28.521333694458008 -9.547113418579102 0.029104605317115784 -0.10265321284532547 0.09091711044311523 63.708518981933594 -49.72382736206055 49.47102355957031 165.87066650390625 84.92884826660156 -166.2106475830078 2.1236414909362793 -26.015050888061523 3.1123619079589844
0.7080642506480217 -10.388929396867752 -3.52124460041523 -172.69937133789062 77.72933959960938 -157.8025360107422 2.1167354583740234 12.611692428588867 16.167469024658203 -3.67257022857666 -11.610671997070312 4.033950328826904 1.323003888130188 14.090460777282715 13.917126655578613 -1.0024679899215698 -18.998014450073242 27.564453125 0.031350258737802505 0.01868506520986557 -0.0017717386363074183 -0.14559996128082275 -0.046890296041965485 0.1475593000650406 0.12980474531650543 -0.04808424040675163 0.10392700880765915 91.30790710449219 54.11317443847656 -45.603858947753906 -26.23114585876465 -45.79175567626953 95.18132781982422 -12.990425109863281 -66.5721435546875 -19.237070083618164 0.0977512001991272 -0.06629995256662369 0.06917820125818253 0.2769947052001953 0.08662686496973038 -0.1149103194475174 -0.20819468796253204 0.01424381136894226 0.08354165405035019 7.655178070068359 5.462890625 0.39817535877227783 -0.3395717442035675 -0.029528606683015823 -0.03907803073525429 3.2615129947662354 1.060811996459961 0.15471844375133514 -0.04450482130050659 0.08657842129468918 0.17202527821063995 10.349028587341309 0.8338631391525269 0.3845037519931793 0.03180147707462311 0.10261823236942291 0.10035901516675949 2.125551223754883 -0.7779715061187744 -0.000893555348739028 0.03390226513147354 -0.05812668055295944 -0.03185765817761421 -41.71518325805664 6.104306221008301 -26.89643096923828 28.408985137939453 -33.0756950378418 -72.48875427246094 4.46380615234375 -47.16157150268555 9.41012954711914 -0.206490620970726 0.07198274880647659 0.17094743251800537 -0.09717167168855667 -0.10147195309400558 -0.0389801524579525 0.20239026844501495 -0.039595503360033035 -0.09537216275930405 -7.730662822723389 5.275877952575684 -0.5345526337623596 0.003800226841121912 -0.08307617902755737 -0.07181033492088318 -2.9613196849823 0.9083226919174194 -0.1314421147108078 0.14080017805099487 0.19400964677333832 0.04010731354355812 -10.57738971710205 0.5338893532752991 0.057505641132593155 -0.13901469111442566 0.13100753724575043 0.3347696363925934 -2.2607219219207764 -0.8797159790992737 0.1583990752696991 0.1954389214515686 0.09645291417837143 0.02468116022646427 -51.12080764770508 -39.642337799072266 -41.2155647277832 -161.6068572998047 86.41973876953125 161.98822021484375 -7.954957008361816 -28.1386661529541 -9.602510452270508 0.04405592754483223 -0.03722434490919113 0.027407674118876457 65.1244888305664 -49.734375 50.693748474121094 167.4729461669922 84.48515319824219 -167.71835327148438 1.649243950843811 -26.14437484741211 2.1921463012695312
